<?xml version="1.0" encoding="UTF-8"?>
<!--Generator: Apple Native CoreSVG 175.5-->
<!DOCTYPE svg
PUBLIC "-//W3C//DTD SVG 1.1//EN"
       "http://www.w3.org/Graphics/SVG/1.1/DTD/svg11.dtd">
<svg version="1.1" xmlns="http://www.w3.org/2000/svg" xmlns:xlink="http://www.w3.org/1999/xlink" width="24.0332" height="24.022">
 <g>
  <rect height="24.022" opacity="0" width="24.0332" x="0" y="0"/>
  <path d="M10.8823 24.0107L13.1509 24.0107C14.0156 24.0107 14.6782 23.4829 14.8804 22.6519L15.3633 20.5518L15.7227 20.4282L17.5532 21.5513C18.2832 22.0117 19.1255 21.8994 19.7432 21.2817L21.3154 19.7207C21.9331 19.103 22.0454 18.2495 21.585 17.5308L20.4395 15.7114L20.5742 15.3745L22.6743 14.8804C23.4941 14.6782 24.0332 14.0044 24.0332 13.1509L24.0332 10.9272C24.0332 10.0737 23.5054 9.3999 22.6743 9.19775L20.5967 8.69238L20.4507 8.33301L21.5962 6.51367C22.0566 5.79492 21.9443 4.95264 21.3267 4.32373L19.7544 2.75146C19.1479 2.14502 18.3057 2.03271 17.5757 2.48193L15.7451 3.60498L15.3633 3.45898L14.8804 1.35889C14.6782 0.527832 14.0156 0 13.1509 0L10.8823 0C10.0176 0 9.35498 0.527832 9.15283 1.35889L8.65869 3.45898L8.27686 3.60498L6.45752 2.48193C5.72754 2.03271 4.87402 2.14502 4.26758 2.75146L2.70654 4.32373C2.08887 4.95264 1.96533 5.79492 2.43701 6.51367L3.57129 8.33301L3.43652 8.69238L1.35889 9.19775C0.527832 9.3999 0 10.0737 0 10.9272L0 13.1509C0 14.0044 0.539062 14.6782 1.35889 14.8804L3.45898 15.3745L3.58252 15.7114L2.44824 17.5308C1.97656 18.2495 2.1001 19.103 2.71777 19.7207L4.27881 21.2817C4.89648 21.8994 5.75 22.0117 6.47998 21.5513L8.29932 20.4282L8.65869 20.5518L9.15283 22.6519C9.35498 23.4829 10.0176 24.0107 10.8823 24.0107ZM11.062 22.2588C10.8711 22.2588 10.77 22.1802 10.7363 22.0005L10.0625 19.2153C9.37744 19.0469 8.7373 18.7773 8.25439 18.4741L5.80615 19.979C5.67139 20.0801 5.52539 20.0576 5.39062 19.9229L4.06543 18.5977C3.94189 18.4741 3.93066 18.3394 4.02051 18.1821L5.52539 15.7563C5.26709 15.2847 4.9751 14.6445 4.79541 13.9595L2.01025 13.2969C1.83057 13.2632 1.75195 13.1621 1.75195 12.9712L1.75195 11.0957C1.75195 10.8936 1.81934 10.8037 2.01025 10.77L4.78418 10.0962C4.96387 9.36621 5.30078 8.70361 5.50293 8.28809L4.00928 5.8623C3.9082 5.69385 3.91943 5.55908 4.04297 5.42432L5.37939 4.12158C5.51416 3.98682 5.6377 3.96436 5.80615 4.06543L8.23193 5.53662C8.71484 5.26709 9.3999 4.98633 10.0737 4.79541L10.7363 2.01025C10.77 1.83057 10.8711 1.75195 11.062 1.75195L12.9712 1.75195C13.1621 1.75195 13.2632 1.83057 13.2856 2.01025L13.9707 4.81787C14.667 4.99756 15.2734 5.27832 15.7788 5.54785L18.2158 4.06543C18.3955 3.96436 18.5078 3.98682 18.6538 4.12158L19.979 5.42432C20.1138 5.55908 20.1138 5.69385 20.0127 5.8623L18.519 8.28809C18.7324 8.70361 19.0581 9.36621 19.2378 10.0962L22.0229 10.77C22.2026 10.8037 22.2812 10.8936 22.2812 11.0957L22.2812 12.9712C22.2812 13.1621 22.1914 13.2632 22.0229 13.2969L19.2266 13.9595C19.0469 14.6445 18.7661 15.2847 18.4966 15.7563L20.0015 18.1821C20.0913 18.3394 20.0913 18.4741 19.9565 18.5977L18.6426 19.9229C18.4966 20.0576 18.3618 20.0801 18.2158 19.979L15.7676 18.4741C15.2847 18.7773 14.6558 19.0469 13.9707 19.2153L13.2856 22.0005C13.2632 22.1802 13.1621 22.2588 12.9712 22.2588ZM12.0166 16.2954C14.3638 16.2954 16.2954 14.3638 16.2954 12.0054C16.2954 9.66943 14.3638 7.73779 12.0166 7.73779C9.66943 7.73779 7.72656 9.66943 7.72656 12.0054C7.72656 14.3525 9.6582 16.2954 12.0166 16.2954ZM12.0166 14.5547C10.624 14.5547 9.47852 13.4092 9.47852 12.0054C9.47852 10.624 10.624 9.47852 12.0166 9.47852C13.3867 9.47852 14.5322 10.624 14.5322 12.0054C14.5322 13.3979 13.3867 14.5547 12.0166 14.5547Z" fill="#ffffff" fill-opacity="0.85"/>
 </g>
</svg>
