<?xml version="1.0" encoding="UTF-8"?>
<!--Generator: Apple Native CoreSVG 175.5-->
<!DOCTYPE svg
PUBLIC "-//W3C//DTD SVG 1.1//EN"
       "http://www.w3.org/Graphics/SVG/1.1/DTD/svg11.dtd">
<svg version="1.1" xmlns="http://www.w3.org/2000/svg" xmlns:xlink="http://www.w3.org/1999/xlink" width="26.4141" height="23.9546">
 <g>
  <rect height="23.9546" opacity="0" width="26.4141" x="0" y="0"/>
  <path d="M16.0259 23.9546L24.561 23.9546C25.6953 23.9546 26.4141 23.1572 26.4141 21.9106L26.4141 7.58057C26.4141 6.33398 25.6953 5.53662 24.561 5.53662L16.8345 5.53662L16.8345 7.34473L23.9658 7.34473C24.4038 7.34473 24.606 7.55811 24.606 7.99609L24.606 21.4951C24.606 21.9331 24.4038 22.1465 23.9658 22.1465L16.0259 22.1465ZM20.3384 11.7134L22.1465 11.7134C22.3711 11.7134 22.5283 11.5562 22.5283 11.3315L22.5283 9.57959C22.5283 9.35498 22.3711 9.19775 22.1465 9.19775L20.3384 9.19775C20.1025 9.19775 19.9678 9.35498 19.9678 9.57959L19.9678 11.3315C19.9678 11.5562 20.1025 11.7134 20.3384 11.7134ZM20.3384 16.0034L22.1465 16.0034C22.3711 16.0034 22.5283 15.8462 22.5283 15.6216L22.5283 13.8696C22.5283 13.645 22.3711 13.4878 22.1465 13.4878L20.3384 13.4878C20.1025 13.4878 19.9678 13.645 19.9678 13.8696L19.9678 15.6216C19.9678 15.8462 20.1025 16.0034 20.3384 16.0034ZM20.3384 20.2935L22.1465 20.2935C22.3711 20.2935 22.5283 20.1362 22.5283 19.9116L22.5283 18.1597C22.5283 17.9351 22.3711 17.7778 22.1465 17.7778L20.3384 17.7778C20.1025 17.7778 19.9678 17.9351 19.9678 18.1597L19.9678 19.9116C19.9678 20.1362 20.1025 20.2935 20.3384 20.2935ZM0 21.9106C0 23.1572 0.71875 23.9546 1.86426 23.9546L16.0259 23.9546C17.1602 23.9546 17.8789 23.1572 17.8789 21.9106L17.8789 2.05518C17.8789 0.808594 17.1602 0.0112305 16.0259 0.0112305L1.86426 0.0112305C0.71875 0.0112305 0 0.808594 0 2.05518ZM1.80811 21.4951L1.80811 2.4707C1.80811 2.02148 2.01025 1.81934 2.45947 1.81934L15.4307 1.81934C15.8687 1.81934 16.0708 2.02148 16.0708 2.4707L16.0708 21.4951C16.0708 21.9331 15.8687 22.1465 15.4307 22.1465L2.45947 22.1465C2.01025 22.1465 1.80811 21.9331 1.80811 21.4951ZM5.03125 23L6.50244 23L6.50244 19.249C6.50244 19.0132 6.62598 18.8896 6.86182 18.8896L11.0171 18.8896C11.2642 18.8896 11.3765 19.0132 11.3765 19.249L11.3765 23L12.8477 23L12.8477 18.8335C12.8477 17.8677 12.4209 17.4185 11.5 17.4185L6.37891 17.4185C5.45801 17.4185 5.03125 17.8677 5.03125 18.8335ZM5.21094 6.72705L7.40088 6.72705C7.67041 6.72705 7.86133 6.54736 7.86133 6.2666L7.86133 4.14404C7.86133 3.87451 7.67041 3.68359 7.40088 3.68359L5.21094 3.68359C4.94141 3.68359 4.77295 3.87451 4.77295 4.14404L4.77295 6.2666C4.77295 6.54736 4.94141 6.72705 5.21094 6.72705ZM10.478 6.72705L12.6567 6.72705C12.9263 6.72705 13.1172 6.54736 13.1172 6.2666L13.1172 4.14404C13.1172 3.87451 12.9263 3.68359 12.6567 3.68359L10.478 3.68359C10.1973 3.68359 10.0288 3.87451 10.0288 4.14404L10.0288 6.2666C10.0288 6.54736 10.1973 6.72705 10.478 6.72705ZM5.21094 11.1743L7.40088 11.1743C7.67041 11.1743 7.86133 10.9946 7.86133 10.7139L7.86133 8.59131C7.86133 8.32178 7.67041 8.13086 7.40088 8.13086L5.21094 8.13086C4.94141 8.13086 4.77295 8.32178 4.77295 8.59131L4.77295 10.7139C4.77295 10.9946 4.94141 11.1743 5.21094 11.1743ZM10.478 11.1743L12.6567 11.1743C12.9263 11.1743 13.1172 10.9946 13.1172 10.7139L13.1172 8.59131C13.1172 8.32178 12.9263 8.13086 12.6567 8.13086L10.478 8.13086C10.1973 8.13086 10.0288 8.32178 10.0288 8.59131L10.0288 10.7139C10.0288 10.9946 10.1973 11.1743 10.478 11.1743ZM5.21094 15.6216L7.40088 15.6216C7.67041 15.6216 7.86133 15.4307 7.86133 15.1611L7.86133 13.0386C7.86133 12.7578 7.67041 12.5781 7.40088 12.5781L5.21094 12.5781C4.94141 12.5781 4.77295 12.7578 4.77295 13.0386L4.77295 15.1611C4.77295 15.4307 4.94141 15.6216 5.21094 15.6216ZM10.478 15.6216L12.6567 15.6216C12.9263 15.6216 13.1172 15.4307 13.1172 15.1611L13.1172 13.0386C13.1172 12.7578 12.9263 12.5781 12.6567 12.5781L10.478 12.5781C10.1973 12.5781 10.0288 12.7578 10.0288 13.0386L10.0288 15.1611C10.0288 15.4307 10.1973 15.6216 10.478 15.6216Z" fill="#ffffff" fill-opacity="0.85"/>
 </g>
</svg>
