<?xml version="1.0" encoding="UTF-8"?>
<!--Generator: Apple Native CoreSVG 175.5-->
<!DOCTYPE svg
PUBLIC "-//W3C//DTD SVG 1.1//EN"
       "http://www.w3.org/Graphics/SVG/1.1/DTD/svg11.dtd">
<svg version="1.1" xmlns="http://www.w3.org/2000/svg" xmlns:xlink="http://www.w3.org/1999/xlink" width="26.8071" height="25.4875">
 <g>
  <rect height="25.4875" opacity="0" width="26.8071" x="0" y="0"/>
  <path d="M10.1636 22.4301L16.6436 22.4301L16.6436 14.2543C16.6436 13.7377 16.3066 13.4008 15.79 13.4008L11.0283 13.4008C10.5005 13.4008 10.1636 13.7377 10.1636 14.2543ZM5.77246 23.5868L20.9673 23.5868C22.562 23.5868 23.4941 22.6771 23.4941 21.1049L23.4941 8.69519L21.686 7.45984L21.686 20.6444C21.686 21.3744 21.293 21.7787 20.5854 21.7787L6.1543 21.7787C5.43555 21.7787 5.04248 21.3744 5.04248 20.6444L5.04248 7.47107L3.23438 8.69519L3.23438 21.1049C3.23438 22.6771 4.1665 23.5868 5.77246 23.5868ZM0 11.0873C0 11.5477 0.359375 11.9857 0.96582 11.9857C1.28027 11.9857 1.53857 11.8173 1.77441 11.6263L13.0161 2.19275C13.2632 1.96814 13.5664 1.96814 13.8135 2.19275L25.0552 11.6263C25.2798 11.8173 25.5381 11.9857 25.8525 11.9857C26.3804 11.9857 26.8071 11.66 26.8071 11.121C26.8071 10.7841 26.6948 10.5594 26.459 10.3573L14.7681 0.53064C13.937-0.17688 12.9038-0.17688 12.0615 0.53064L0.359375 10.3573C0.112305 10.5594 0 10.829 0 11.0873ZM20.6753 6.02234L23.4941 8.4032L23.4941 3.21472C23.4941 2.72058 23.1797 2.40613 22.6855 2.40613L21.4839 2.40613C21.001 2.40613 20.6753 2.72058 20.6753 3.21472Z" fill="#ffffff" fill-opacity="0.85"/>
 </g>
</svg>
