<?xml version="1.0" encoding="UTF-8"?>
<!--Generator: Apple Native CoreSVG 175.5-->
<!DOCTYPE svg
PUBLIC "-//W3C//DTD SVG 1.1//EN"
       "http://www.w3.org/Graphics/SVG/1.1/DTD/svg11.dtd">
<svg version="1.1" xmlns="http://www.w3.org/2000/svg" xmlns:xlink="http://www.w3.org/1999/xlink" width="498.047" height="498.291">
 <g>
  <rect height="498.291" opacity="0" width="498.047" x="0" y="0"/>
  <path d="M249.023 498.047C385.254 498.047 498.047 385.01 498.047 249.023C498.047 112.793 385.01 0 248.779 0C112.793 0 0 112.793 0 249.023C0 385.01 113.037 498.047 249.023 498.047Z" fill="#ffffff" fill-opacity="0.2125"/>
  <path d="M297.363 369.873C291.016 375.977 278.32 375.488 271.484 369.141L169.922 273.193C156.006 260.498 156.006 238.037 169.922 225.342L271.484 129.395C279.053 122.314 290.283 122.07 297.119 128.662C304.688 135.742 304.932 147.949 297.607 154.785L197.266 249.023L297.607 343.75C304.688 350.586 304.932 362.305 297.363 369.873Z" fill="#ffffff" fill-opacity="0.85"/>
 </g>
</svg>
