<?xml version="1.0" encoding="UTF-8"?>
<!--Generator: Apple Native CoreSVG 175.5-->
<!DOCTYPE svg
PUBLIC "-//W3C//DTD SVG 1.1//EN"
       "http://www.w3.org/Graphics/SVG/1.1/DTD/svg11.dtd">
<svg version="1.1" xmlns="http://www.w3.org/2000/svg" xmlns:xlink="http://www.w3.org/1999/xlink" width="23.4717" height="23.4829">
 <g>
  <rect height="23.4829" opacity="0" width="23.4717" x="0" y="0"/>
  <path d="M10.7026 23.4717L12.769 23.4717C13.353 23.4717 13.7798 23.1235 13.9033 22.5508L14.4873 20.0801C14.9253 19.9341 15.3521 19.7656 15.7227 19.5859L17.8901 20.9111C18.373 21.2144 18.9233 21.1694 19.3276 20.7651L20.7764 19.3276C21.1807 18.9233 21.2368 18.3394 20.9111 17.8564L19.5859 15.7114C19.7769 15.3184 19.9453 14.9141 20.0688 14.5098L22.562 13.9146C23.1348 13.791 23.4717 13.3643 23.4717 12.7803L23.4717 10.7476C23.4717 10.1748 23.1348 9.74805 22.562 9.62451L20.0913 9.0293C19.9453 8.56885 19.7656 8.15332 19.6084 7.80518L20.9336 5.62646C21.248 5.14355 21.2144 4.59326 20.7988 4.18896L19.3276 2.74023C18.9121 2.3584 18.418 2.29102 17.9238 2.57178L15.7227 3.93066C15.3633 3.73975 14.9478 3.57129 14.4873 3.42529L13.9033 0.920898C13.7798 0.348145 13.353 0 12.769 0L10.7026 0C10.1187 0 9.69189 0.348145 9.55713 0.920898L8.97314 3.40283C8.53516 3.54883 8.1084 3.71729 7.72656 3.91943L5.54785 2.57178C5.05371 2.29102 4.54834 2.34717 4.13281 2.74023L2.67285 4.18896C2.25732 4.59326 2.2124 5.14355 2.53809 5.62646L3.85205 7.80518C3.70605 8.15332 3.52637 8.56885 3.38037 9.0293L0.909668 9.62451C0.336914 9.74805 0 10.1748 0 10.7476L0 12.7803C0 13.3643 0.336914 13.791 0.909668 13.9146L3.40283 14.5098C3.52637 14.9141 3.69482 15.3184 3.87451 15.7114L2.56055 17.8564C2.22363 18.3394 2.29102 18.9233 2.69531 19.3276L4.13281 20.7651C4.53711 21.1694 5.09863 21.2144 5.58154 20.9111L7.73779 19.5859C8.11963 19.7656 8.53516 19.9341 8.97314 20.0801L9.55713 22.5508C9.69189 23.1235 10.1187 23.4717 10.7026 23.4717ZM11.7358 15.7002C9.55713 15.7002 7.77148 13.9033 7.77148 11.7246C7.77148 9.55713 9.55713 7.77148 11.7358 7.77148C13.9146 7.77148 15.7002 9.55713 15.7002 11.7246C15.7002 13.9033 13.9146 15.7002 11.7358 15.7002Z" fill="#ffffff" fill-opacity="0.85"/>
 </g>
</svg>
