<?xml version="1.0" encoding="UTF-8"?>
<!--Generator: Apple Native CoreSVG 175.5-->
<!DOCTYPE svg
PUBLIC "-//W3C//DTD SVG 1.1//EN"
       "http://www.w3.org/Graphics/SVG/1.1/DTD/svg11.dtd">
<svg version="1.1" xmlns="http://www.w3.org/2000/svg" xmlns:xlink="http://www.w3.org/1999/xlink" width="26.8071" height="25.4875">
 <g>
  <rect height="25.4875" opacity="0" width="26.8071" x="0" y="0"/>
  <path d="M16.2954 21.7787L10.5005 21.7787L10.5005 14.3553C10.5005 13.8387 10.8486 13.5018 11.3652 13.5018L15.4419 13.5018C15.9585 13.5018 16.2954 13.8387 16.2954 14.3553ZM3.50391 21.1049C3.50391 22.6659 4.44727 23.5868 6.03076 23.5868L20.7988 23.5868C22.3823 23.5868 23.3145 22.6659 23.3145 21.1049L23.3145 12.2103L14.083 4.47253C13.6562 4.11316 13.1509 4.12439 12.7354 4.47253L3.50391 12.2103ZM0 11.0873C0 11.5477 0.359375 11.9857 0.96582 11.9857C1.28027 11.9857 1.53857 11.8173 1.77441 11.6263L13.0161 2.19275C13.2632 1.96814 13.5664 1.96814 13.8135 2.19275L25.0552 11.6263C25.2798 11.8173 25.5381 11.9857 25.8525 11.9857C26.3804 11.9857 26.8071 11.66 26.8071 11.121C26.8071 10.7841 26.6948 10.5594 26.459 10.3573L14.7681 0.53064C13.937-0.17688 12.9038-0.17688 12.0615 0.53064L0.359375 10.3573C0.112305 10.5594 0 10.829 0 11.0873ZM20.4956 6.02234L23.3145 8.4032L23.3145 3.21472C23.3145 2.72058 23 2.40613 22.5059 2.40613L21.3042 2.40613C20.8213 2.40613 20.4956 2.72058 20.4956 3.21472Z" fill="#ffffff" fill-opacity="0.85"/>
 </g>
</svg>
