<?xml version="1.0" encoding="utf-8"?><!-- Uploaded to: SVG Repo, www.svgrepo.com, Generator: SVG Repo Mixer Tools -->
<svg fill="#000000" width="800px" height="800px" viewBox="0 0 24 24" xmlns="http://www.w3.org/2000/svg">
  <path fill-rule="evenodd" d="M5.65079137,21.7592566 C5.00211805,22.3152623 4,21.8543532 4,21 L4,5 C4,3.34314575 5.34314575,2 7,2 L17,2 C18.6568542,2 20,3.34314575 20,5 L20,21 C20,21.8543532 18.9978819,22.3152623 18.3492086,21.7592566 L12,16.3170778 L5.65079137,21.7592566 Z M18,18.8257794 L18,5 C18,4.44771525 17.5522847,4 17,4 L7,4 C6.44771525,4 6,4.44771525 6,5 L6,18.8257794 L11.3492086,14.2407434 C11.7236984,13.9197522 12.2763016,13.9197522 12.6507914,14.2407434 L18,18.8257794 Z"/>
</svg>