<?xml version="1.0" encoding="UTF-8"?>
<!--Generator: Apple Native CoreSVG 175.5-->
<!DOCTYPE svg
PUBLIC "-//W3C//DTD SVG 1.1//EN"
       "http://www.w3.org/Graphics/SVG/1.1/DTD/svg11.dtd">
<svg version="1.1" xmlns="http://www.w3.org/2000/svg" xmlns:xlink="http://www.w3.org/1999/xlink" width="26.4365" height="23.9546">
 <g>
  <rect height="23.9546" opacity="0" width="26.4365" x="0" y="0"/>
  <path d="M18.1035 23.9546L24.5835 23.9546C25.7178 23.9546 26.4365 23.1572 26.4365 21.9106L26.4365 7.58057C26.4365 6.33398 25.7178 5.53662 24.5835 5.53662L18.6538 5.53662L18.6538 21.9106C18.6538 22.6631 18.4741 23.3481 18.1035 23.9546ZM21.2031 11.2192L21.2031 9.42236C21.2031 9.18652 21.3491 9.0293 21.5962 9.0293L23.4604 9.0293C23.6963 9.0293 23.8535 9.18652 23.8535 9.42236L23.8535 11.2192C23.8535 11.4551 23.6963 11.6235 23.4604 11.6235L21.5962 11.6235C21.3491 11.6235 21.2031 11.4551 21.2031 11.2192ZM21.2031 15.644L21.2031 13.8472C21.2031 13.6113 21.3491 13.4541 21.5962 13.4541L23.4604 13.4541C23.6963 13.4541 23.8535 13.6113 23.8535 13.8472L23.8535 15.644C23.8535 15.8799 23.6963 16.0371 23.4604 16.0371L21.5962 16.0371C21.3491 16.0371 21.2031 15.8799 21.2031 15.644ZM21.2031 20.0688L21.2031 18.272C21.2031 18.0361 21.3491 17.8677 21.5962 17.8677L23.4604 17.8677C23.6963 17.8677 23.8535 18.0361 23.8535 18.272L23.8535 20.0688C23.8535 20.3047 23.6963 20.4619 23.4604 20.4619L21.5962 20.4619C21.3491 20.4619 21.2031 20.3047 21.2031 20.0688ZM0 21.9106C0 23.1572 0.71875 23.9546 1.86426 23.9546L15.251 23.9546C16.3965 23.9546 17.1152 23.1572 17.1152 21.9106L17.1152 2.05518C17.1152 0.808594 16.3965 0.0112305 15.251 0.0112305L1.86426 0.0112305C0.71875 0.0112305 0 0.808594 0 2.05518ZM4.67188 22.1465L4.67188 18.4966C4.67188 17.98 5.00879 17.6431 5.52539 17.6431L11.6909 17.6431C12.2075 17.6431 12.5444 17.98 12.5444 18.4966L12.5444 22.1465ZM4.30127 6.04199L4.30127 3.86328C4.30127 3.58252 4.48096 3.38037 4.76172 3.38037L7.00781 3.38037C7.28857 3.38037 7.49072 3.58252 7.49072 3.86328L7.49072 6.04199C7.49072 6.33398 7.28857 6.5249 7.00781 6.5249L4.76172 6.5249C4.48096 6.5249 4.30127 6.33398 4.30127 6.04199ZM9.72559 6.04199L9.72559 3.86328C9.72559 3.58252 9.90527 3.38037 10.1973 3.38037L12.4321 3.38037C12.7129 3.38037 12.915 3.58252 12.915 3.86328L12.915 6.04199C12.915 6.33398 12.7129 6.5249 12.4321 6.5249L10.1973 6.5249C9.90527 6.5249 9.72559 6.33398 9.72559 6.04199ZM4.30127 10.624L4.30127 8.44531C4.30127 8.16455 4.48096 7.9624 4.76172 7.9624L7.00781 7.9624C7.28857 7.9624 7.49072 8.16455 7.49072 8.44531L7.49072 10.624C7.49072 10.916 7.28857 11.1069 7.00781 11.1069L4.76172 11.1069C4.48096 11.1069 4.30127 10.916 4.30127 10.624ZM9.72559 10.624L9.72559 8.44531C9.72559 8.16455 9.90527 7.9624 10.1973 7.9624L12.4321 7.9624C12.7129 7.9624 12.915 8.16455 12.915 8.44531L12.915 10.624C12.915 10.916 12.7129 11.1069 12.4321 11.1069L10.1973 11.1069C9.90527 11.1069 9.72559 10.916 9.72559 10.624ZM4.30127 15.2061L4.30127 13.0273C4.30127 12.7354 4.48096 12.5444 4.76172 12.5444L7.00781 12.5444C7.28857 12.5444 7.49072 12.7354 7.49072 13.0273L7.49072 15.2061C7.49072 15.4868 7.28857 15.689 7.00781 15.689L4.76172 15.689C4.48096 15.689 4.30127 15.4868 4.30127 15.2061ZM9.72559 15.2061L9.72559 13.0273C9.72559 12.7354 9.90527 12.5444 10.1973 12.5444L12.4321 12.5444C12.7129 12.5444 12.915 12.7354 12.915 13.0273L12.915 15.2061C12.915 15.4868 12.7129 15.689 12.4321 15.689L10.1973 15.689C9.90527 15.689 9.72559 15.4868 9.72559 15.2061Z" fill="#ffffff" fill-opacity="0.85"/>
 </g>
</svg>
